<svg version="1.1" id="Layer_1" xmlns="http://www.w3.org/2000/svg" xmlns:xlink="http://www.w3.org/1999/xlink" x="0px" y="0px"
	 width="100%" viewBox="0 0 860 900" enable-background="new 0 0 860 900" xml:space="preserve">
<path fill="#F7F7F7" opacity="1.000000" stroke="none" 
	d="
M536.000000,901.000000 
	C357.333344,901.000000 179.166672,901.000000 1.000000,901.000000 
	C1.000000,601.000000 1.000000,301.000000 1.000000,1.000000 
	C287.666656,1.000000 574.333313,1.000000 861.000000,1.000000 
	C861.000000,301.000000 861.000000,601.000000 861.000000,901.000000 
	C752.833313,901.000000 644.666687,901.000000 536.000000,901.000000 
M598.149109,814.672058 
	C649.462585,795.517517 695.441040,767.631958 735.765991,730.515442 
	C774.308044,695.039917 805.144531,653.765564 828.215210,606.761780 
	C830.057251,603.008850 831.017212,597.934692 830.190186,593.927979 
	C827.788269,582.290283 816.443481,578.148865 804.519714,583.875671 
	C718.551514,625.164062 629.011597,634.716980 536.943115,610.517212 
	C433.853058,583.420593 354.710175,522.880371 300.468903,431.197479 
	C254.103165,352.826477 238.774231,267.824860 251.828644,177.750397 
	C257.360748,139.579315 268.946777,103.238083 285.541168,68.434471 
	C287.266998,64.814972 288.701355,60.426369 288.356934,56.565334 
	C287.217438,43.790977 274.724396,38.000099 262.481812,44.185696 
	C233.084839,59.038616 205.318222,76.521400 180.537964,98.235512 
	C64.705444,199.735672 16.608538,327.568329 35.557850,479.890961 
	C44.994606,555.747559 75.570145,623.623291 123.861336,682.949951 
	C194.228516,769.397461 284.845703,821.063354 395.272156,836.678650 
	C464.281067,846.437134 531.809082,838.702942 598.149109,814.672058 
z"/>
<path fill="#000000" opacity="1.000000" stroke="none" 
	d="
M597.778442,814.792847 
	C531.809082,838.702942 464.281067,846.437134 395.272156,836.678650 
	C284.845703,821.063354 194.228516,769.397461 123.861336,682.949951 
	C75.570145,623.623291 44.994606,555.747559 35.557850,479.890961 
	C16.608538,327.568329 64.705444,199.735672 180.537964,98.235512 
	C205.318222,76.521400 233.084839,59.038616 262.481812,44.185696 
	C274.724396,38.000099 287.217438,43.790977 288.356934,56.565334 
	C288.701355,60.426369 287.266998,64.814972 285.541168,68.434471 
	C268.946777,103.238083 257.360748,139.579315 251.828644,177.750397 
	C238.774231,267.824860 254.103165,352.826477 300.468903,431.197479 
	C354.710175,522.880371 433.853058,583.420593 536.943115,610.517212 
	C629.011597,634.716980 718.551514,625.164062 804.519714,583.875671 
	C816.443481,578.148865 827.788269,582.290283 830.190186,593.927979 
	C831.017212,597.934692 830.057251,603.008850 828.215210,606.761780 
	C805.144531,653.765564 774.308044,695.039917 735.765991,730.515442 
	C695.441040,767.631958 649.462585,795.517517 597.778442,814.792847 
z"/>
</svg>