<svg version="1.1" id="Layer_1" xmlns="http://www.w3.org/2000/svg" xmlns:xlink="http://www.w3.org/1999/xlink" x="0px" y="0px"
	 width="100%" viewBox="0 0 848 896" enable-background="new 0 0 848 896" xml:space="preserve">
<path fill="#000000" opacity="1.000000" stroke="none" 
	d="
M284.870972,537.068787 
	C268.070618,510.889771 258.004089,482.744171 256.706573,451.940247 
	C253.571259,377.505341 285.611572,322.345001 349.700958,285.527832 
	C379.060547,268.661713 411.016907,264.168457 444.654602,266.377502 
	C482.571564,268.867554 515.568604,282.358704 544.117676,306.840363 
	C575.759644,333.974243 596.805298,367.816376 603.673035,409.213135 
	C612.919617,464.948578 598.640442,514.563416 561.605286,557.278748 
	C533.939392,589.187805 498.569397,608.346802 457.031128,613.642517 
	C384.847534,622.845154 327.198914,597.042480 284.870972,537.068787 
M483.592834,553.059326 
	C509.423065,540.065735 529.357971,520.660950 542.486023,495.163879 
	C558.289001,464.471649 558.960022,432.212128 547.972961,399.719238 
	C525.756897,334.017670 452.834991,299.287048 388.229309,323.938232 
	C317.934418,350.760223 284.788879,431.783173 323.085846,501.220367 
	C355.712463,560.376465 426.359650,578.375793 483.592834,553.059326 
z"/>
<path fill="#000000" opacity="1.000000" stroke="none" 
	d="
M709.880859,683.128540 
	C714.173462,688.003296 718.664368,692.255493 720.877869,698.254639 
	C723.086426,704.240295 723.328796,710.174133 719.790405,715.530090 
	C714.161987,724.049805 707.614258,731.473999 696.035828,731.361084 
	C690.843079,731.310425 686.741455,729.004639 682.957581,725.898682 
	C671.993958,716.899597 661.986755,706.867004 651.955444,696.870789 
	C625.161865,670.170837 598.714172,643.112854 571.447998,616.905701 
	C564.334167,610.068176 562.742004,602.973083 563.797791,594.247070 
	C564.985840,584.428284 569.614746,577.230896 579.133484,573.230774 
	C586.946960,569.947266 593.938171,571.123718 600.185425,576.163513 
	C617.195740,589.885986 632.488831,605.498596 648.131042,620.704651 
	C669.034058,641.024780 689.688477,661.602051 709.880859,683.128540 
z"/>
<path fill="#000000" opacity="1.000000" stroke="none" 
	d="
M190.212173,716.237061 
	C186.287750,719.621033 182.582077,722.719177 179.005447,725.959778 
	C171.771729,732.513794 163.621475,732.747314 155.284256,728.945374 
	C146.789917,725.071899 141.848862,718.132507 140.773911,708.825195 
	C139.997757,702.105042 141.742249,696.063477 146.390457,690.815796 
	C167.061768,667.478455 189.087448,645.445190 211.154358,623.458252 
	C226.374985,608.292786 241.520935,593.024536 257.772644,578.945740 
	C272.498657,566.188660 294.418823,573.539734 298.895569,592.504395 
	C301.077789,601.748779 296.724060,608.546448 290.877533,614.931152 
	C269.933228,637.803589 247.428299,659.136597 225.628403,681.164246 
	C214.024490,692.889404 202.209198,704.405334 190.212173,716.237061 
z"/>
<path fill="#000000" opacity="1.000000" stroke="none" 
	d="
M423.061646,41.546326 
	C436.673798,38.590130 447.409088,42.987888 455.078033,54.294632 
	C456.320312,56.126122 456.192596,58.079739 456.193207,60.053265 
	C456.209747,114.366394 456.193542,168.679550 456.257111,222.992615 
	C456.260681,226.042435 455.452423,228.465256 453.249237,230.577927 
	C451.572327,232.185944 449.962067,233.923706 448.628082,235.819061 
	C441.354156,246.153915 421.546448,245.753250 413.602722,236.334305 
	C408.258331,229.997437 405.496246,224.026169 405.567596,215.506653 
	C405.984741,165.695236 406.224274,115.872032 405.475098,66.068581 
	C405.294006,54.030277 411.752991,48.414001 419.872833,42.710804 
	C420.662109,42.156448 421.718994,41.983082 423.061646,41.546326 
z"/>
<path fill="#000000" opacity="1.000000" stroke="none" 
	d="
M643.464050,263.465027 
	C630.692810,275.914093 618.459045,288.397614 605.563171,300.225647 
	C593.513550,311.277496 582.610718,309.616272 572.952393,303.385071 
	C563.929016,297.563538 558.748901,279.999390 567.637329,269.866333 
	C581.156555,254.454010 595.381958,239.744217 609.701172,225.119965 
	C630.080505,204.306488 650.437195,183.460846 671.679321,163.511642 
	C673.499329,161.802353 675.457947,160.233871 677.207581,158.457565 
	C685.539185,149.999084 695.574341,149.168472 706.344238,152.002502 
	C718.325500,155.155304 725.528564,171.209610 719.762329,182.116699 
	C715.043152,191.043350 708.080688,198.316376 701.098328,205.434708 
	C682.090393,224.812622 662.857727,243.970139 643.464050,263.465027 
z"/>
<path fill="#000000" opacity="1.000000" stroke="none" 
	d="
M268.767731,307.850586 
	C263.888153,306.484406 260.373871,303.663849 257.044067,300.632629 
	C229.196777,275.282471 203.250992,248.005249 176.799698,221.243759 
	C166.151627,210.470779 155.704895,199.490662 145.988922,187.843719 
	C136.002731,175.872879 141.448776,157.092194 156.363739,151.833298 
	C166.089737,148.403961 174.244888,150.179108 182.089844,157.160339 
	C208.231384,180.423737 232.984360,205.099655 257.408447,230.117081 
	C270.195984,243.215240 282.594391,256.673706 294.742004,270.389587 
	C303.001862,279.715790 299.818420,301.795746 282.018219,307.108398 
	C277.857117,308.350311 273.528351,308.782562 268.767731,307.850586 
z"/>
<path fill="#000000" opacity="1.000000" stroke="none" 
	d="
M177.999634,414.956909 
	C190.157562,414.864746 201.814514,415.050507 213.365143,416.757019 
	C230.390884,419.272400 237.875839,432.366028 232.207886,448.803772 
	C230.020218,455.148254 225.448578,459.357422 220.842651,463.685547 
	C219.237656,465.193726 217.197113,465.112091 215.187622,465.109100 
	C172.389984,465.045197 129.590424,465.189545 86.795937,464.789856 
	C75.013725,464.679810 63.192379,464.504761 51.402332,463.392517 
	C37.925827,462.121155 31.124559,455.503174 30.669661,442.076752 
	C30.181442,427.666931 37.370049,417.695282 50.174469,416.526001 
	C61.922935,415.453186 73.770195,415.172241 85.577652,415.092072 
	C116.217278,414.884033 146.858948,414.978485 177.999634,414.956909 
z"/>
<path fill="#000000" opacity="1.000000" stroke="none" 
	d="
M423.757172,638.430237 
	C436.153595,635.401001 448.846100,640.603943 455.258118,651.004028 
	C456.200012,652.531799 456.201813,654.164307 456.199188,655.824219 
	C456.131744,698.638733 456.342316,741.456848 455.812683,784.265747 
	C455.648285,797.551331 455.881226,810.907898 454.345154,824.177979 
	C453.897888,828.041748 452.633453,831.185730 449.476715,833.585327 
	C441.270447,839.823730 432.747375,843.298645 422.108734,839.618225 
	C411.962952,836.108337 408.732819,828.510986 407.682800,818.986572 
	C406.587402,809.050476 405.978668,799.073730 405.936462,789.094910 
	C405.796295,755.943298 405.729279,722.789795 405.954163,689.639160 
	C406.023987,679.341858 407.044495,669.046875 407.753021,658.759338 
	C408.453156,648.592651 413.309143,641.534424 423.757172,638.430237 
z"/>
<path fill="#000000" opacity="1.000000" stroke="none" 
	d="
M696.000000,465.074158 
	C681.513367,465.078735 667.469116,464.302612 653.558044,465.329895 
	C642.145447,466.172668 636.371765,459.839294 631.466614,451.632690 
	C622.010925,435.812836 633.556885,416.381958 649.207275,416.283508 
	C656.681213,416.236511 664.149475,415.175415 671.622559,415.146454 
	C695.259705,415.054840 718.894592,414.863617 742.536682,415.429596 
	C764.338135,415.951477 786.158386,415.694641 807.970398,415.763855 
	C819.933960,415.801819 830.288269,425.332764 831.255920,437.403381 
	C831.601868,441.718353 831.502258,446.037567 830.140137,450.252838 
	C827.423706,458.659698 821.680542,462.934387 812.827087,463.330536 
	C774.067810,465.064819 735.284485,465.086792 696.000000,465.074158 
z"/>
</svg>